<svg viewBox="296.7172 183.9692 20.461 25" width="20.461" height="25">
  <g
    transform="matrix(0.9999999999999999, 0, 0, 0.9999999999999999, 291.95123291015625, 178.96923828125)">
    <path
      d="M 7.766 5 L 22.227 5 C 22.984 5.044 23.86 5.391 24.348 5.879 C 24.836 6.367 25.183 7.243 25.227 8 L 25.227 27 C 25.183 27.757 24.836 28.633 24.348 29.121 C 23.86 29.609 22.984 29.956 22.227 30 L 7.766 30 C 7.009 29.956 6.132 29.609 5.644 29.121 C 5.156 28.633 4.809 27.757 4.766 27 L 4.766 8 C 4.809 7.243 5.156 6.367 5.644 5.879 C 6.132 5.391 7.009 5.044 7.766 5 Z M 7.059 7.293 C 6.823 7.529 6.722 7.652 6.766 8 L 6.766 27 C 6.722 27.348 6.823 27.471 7.059 27.707 C 7.294 27.943 7.418 28.044 7.766 28 L 22.227 28 C 22.575 28.044 22.698 27.943 22.934 27.707 C 23.17 27.471 23.271 27.348 23.227 27 L 23.227 8 C 23.271 7.652 23.17 7.529 22.934 7.293 C 22.698 7.057 22.575 6.956 22.227 7 L 7.766 7 C 7.418 6.956 7.294 7.057 7.059 7.293 Z"></path>
  </g>
  <path clip-rule="evenodd"
    d="M 312.243 197.232 L 307.705 197.232 L 307.705 201.824 L 306.192 201.824 L 306.192 197.232 L 301.654 197.232 L 301.654 195.702 L 306.192 195.702 L 306.192 191.11 L 307.705 191.11 L 307.705 195.702 L 312.243 195.702 L 312.243 197.232 Z"
    transform="matrix(0.9999999999999999, 0, 0, 0.9999999999999999, 5.684341886080802e-14, 0)"></path>
</svg>